<svg width="12" height="10" viewBox="0 0 12 10" fill="none" xmlns="http://www.w3.org/2000/svg">
<path d="M1.09583 2.53864C2.26047 1.52515 3.18044 0.723812 5.67705 2.15352C6.87635 2.83999 7.84366 3.09945 8.6483 3.09809C10.0583 3.09809 10.9722 2.30351 11.7622 1.61636C11.8978 1.49681 11.9821 1.32843 11.9973 1.14693C12.0125 0.965429 11.9574 0.785069 11.8436 0.644084C11.788 0.574901 11.7194 0.517705 11.6417 0.475878C11.564 0.434051 11.4788 0.408443 11.3912 0.400568C11.3035 0.392694 11.2152 0.402713 11.1315 0.430033C11.0477 0.457354 10.9702 0.50142 10.9036 0.559626C9.73961 1.57447 8.81897 2.37581 6.32236 0.944754C3.02378 -0.942375 1.47849 0.402196 0.237187 1.48326C0.101691 1.60291 0.0174906 1.77133 0.00243269 1.95283C-0.0126253 2.13433 0.0426426 2.31464 0.156522 2.45554C0.212069 2.5246 0.280721 2.58167 0.358415 2.62337C0.436109 2.66506 0.521266 2.69054 0.608847 2.69829C0.696428 2.70604 0.784653 2.6959 0.8683 2.66848C0.951947 2.64106 1.02932 2.59691 1.09583 2.53864ZM10.9036 4.01024C9.73961 5.02374 8.81897 5.82642 6.32236 4.39537C3.02378 2.50689 1.47849 3.85213 0.237187 4.93252C0.101691 5.05217 0.0174906 5.22059 0.00243269 5.40209C-0.0126253 5.58359 0.0426426 5.7639 0.156522 5.9048C0.211973 5.97396 0.280552 6.03115 0.358197 6.07297C0.435843 6.11478 0.520978 6.14039 0.608562 6.14826C0.696146 6.15614 0.784399 6.14612 0.868096 6.11881C0.951793 6.0915 1.02923 6.04745 1.09583 5.98926C2.26047 4.97509 3.18044 4.17375 5.67705 5.60278C6.87635 6.29061 7.84366 6.54871 8.6483 6.54871C10.0583 6.54871 10.9722 5.75413 11.7622 5.06563C11.8979 4.94628 11.9823 4.778 11.9975 4.59656C12.0127 4.41512 11.9575 4.23483 11.8436 4.09402C11.7881 4.02481 11.7194 3.9676 11.6417 3.92578C11.5639 3.88396 11.4787 3.85838 11.3911 3.85057C11.3034 3.84276 11.2151 3.85286 11.1313 3.88029C11.0476 3.90772 10.9702 3.95191 10.9036 4.01024ZM10.9036 7.46018C9.73961 8.47503 8.81897 9.27636 6.32236 7.84666C3.02378 5.95818 1.47849 7.30275 0.237187 8.38381C0.101691 8.50346 0.0174906 8.67188 0.00243269 8.85338C-0.0126253 9.03488 0.0426426 9.21519 0.156522 9.35609C0.212014 9.42524 0.280645 9.48238 0.35834 9.52413C0.436036 9.56588 0.521215 9.59138 0.608822 9.59914C0.696429 9.60689 0.78468 9.59672 0.868338 9.56925C0.951997 9.54178 1.02936 9.49755 1.09583 9.4392C2.26047 8.4257 3.18044 7.62504 5.67705 9.05407C6.87635 9.74055 7.84366 10 8.6483 10C10.0583 10 10.9722 9.20407 11.7622 8.51692C11.8978 8.39736 11.9821 8.22899 11.9973 8.04749C12.0125 7.86598 11.9574 7.68562 11.8436 7.54464C11.788 7.47553 11.7193 7.41841 11.6416 7.37664C11.5639 7.33486 11.4788 7.30929 11.3911 7.30141C11.3035 7.29354 11.2153 7.30354 11.1315 7.3308C11.0478 7.35807 10.9703 7.40206 10.9036 7.46018Z" fill="#EDE6CD"/>
</svg>
