<svg width="16" height="16" viewBox="0 0 16 16" fill="none" xmlns="http://www.w3.org/2000/svg">
<path d="M3.42857 11.4286H1.14286V14.8571H3.42857V11.4286ZM9.14286 6.85714H6.85714V14.8571H9.14286V6.85714ZM14.8571 1.14286V14.8571H12.5714V1.14286H14.8571ZM12.5714 0C12.2683 0 11.9776 0.120408 11.7633 0.334735C11.549 0.549062 11.4286 0.839753 11.4286 1.14286V14.8571C11.4286 15.1602 11.549 15.4509 11.7633 15.6653C11.9776 15.8796 12.2683 16 12.5714 16H14.8571C15.1602 16 15.4509 15.8796 15.6653 15.6653C15.8796 15.4509 16 15.1602 16 14.8571V1.14286C16 0.839753 15.8796 0.549062 15.6653 0.334735C15.4509 0.120408 15.1602 0 14.8571 0H12.5714ZM5.71429 6.85714C5.71429 6.55404 5.83469 6.26335 6.04902 6.04902C6.26335 5.83469 6.55404 5.71429 6.85714 5.71429H9.14286C9.44596 5.71429 9.73665 5.83469 9.95098 6.04902C10.1653 6.26335 10.2857 6.55404 10.2857 6.85714V14.8571C10.2857 15.1602 10.1653 15.4509 9.95098 15.6653C9.73665 15.8796 9.44596 16 9.14286 16H6.85714C6.55404 16 6.26335 15.8796 6.04902 15.6653C5.83469 15.4509 5.71429 15.1602 5.71429 14.8571V6.85714ZM0 11.4286C0 11.1255 0.120408 10.8348 0.334735 10.6205C0.549062 10.4061 0.839753 10.2857 1.14286 10.2857H3.42857C3.73168 10.2857 4.02237 10.4061 4.23669 10.6205C4.45102 10.8348 4.57143 11.1255 4.57143 11.4286V14.8571C4.57143 15.1602 4.45102 15.4509 4.23669 15.6653C4.02237 15.8796 3.73168 16 3.42857 16H1.14286C0.839753 16 0.549062 15.8796 0.334735 15.6653C0.120408 15.4509 0 15.1602 0 14.8571V11.4286Z" fill="#EDE6CD"/>
</svg>
