<svg width="23" height="23" viewBox="0 0 23 23" fill="none" xmlns="http://www.w3.org/2000/svg">
<path d="M11.7637 18.2084C11.9554 18.1924 12.1192 18.1164 12.2553 17.9803C12.3914 17.8442 12.4591 17.6806 12.4585 17.4896C12.4585 17.266 12.3866 17.0861 12.2429 16.9501C12.0991 16.814 11.9154 16.7542 11.6918 16.7709C11.037 16.8188 10.3422 16.6389 9.60745 16.2313C8.87273 15.8237 8.40954 15.0851 8.21787 14.0156C8.18593 13.84 8.10223 13.6962 7.96679 13.5844C7.83134 13.4726 7.67545 13.4167 7.49912 13.4167C7.27551 13.4167 7.09183 13.5007 6.94808 13.6687C6.80433 13.8368 6.75641 14.0323 6.80433 14.2552C7.07586 15.7087 7.71475 16.7469 8.721 17.3698C9.72725 17.9927 10.7415 18.2722 11.7637 18.2084ZM11.5002 21.0834C9.31197 21.0834 7.48698 20.3327 6.02521 18.8313C4.56343 17.3299 3.83286 15.4611 3.8335 13.225C3.8335 11.6278 4.46855 9.89066 5.73866 8.0136C7.00877 6.13655 8.92927 4.10424 11.5002 1.91669C14.0717 4.10488 15.9925 6.13751 17.2626 8.01456C18.5327 9.89162 19.1675 11.6284 19.1668 13.225C19.1668 15.4611 18.4359 17.3299 16.9742 18.8313C15.5124 20.3327 13.6877 21.0834 11.5002 21.0834ZM11.5002 19.1667C13.1613 19.1667 14.5349 18.6035 15.621 17.4771C16.7071 16.3508 17.2502 14.9334 17.2502 13.225C17.2502 12.059 16.7668 10.7413 15.8002 9.2719C14.8336 7.80245 13.4002 6.19724 11.5002 4.45627C9.59947 6.19724 8.16612 7.80245 7.20012 9.2719C6.23412 10.7413 5.7508 12.059 5.75016 13.225C5.75016 14.934 6.29322 16.3517 7.37933 17.4781C8.46544 18.6045 9.83905 19.1673 11.5002 19.1667Z" fill="#EDE6CD"/>
</svg>
