<svg width="23" height="23" viewBox="0 0 23 23" fill="none" xmlns="http://www.w3.org/2000/svg">
<path d="M11.7637 18.2084C11.9554 18.1924 12.1192 18.1164 12.2553 17.9803C12.3914 17.8442 12.4591 17.6807 12.4585 17.4897C12.4585 17.2661 12.3866 17.0862 12.2429 16.9501C12.0991 16.814 11.9154 16.7543 11.6918 16.7709C11.037 16.8188 10.3422 16.639 9.60745 16.2314C8.87273 15.8238 8.40954 15.0852 8.21787 14.0157C8.18593 13.84 8.10223 13.6963 7.96679 13.5845C7.83134 13.4727 7.67545 13.4167 7.49912 13.4167C7.27551 13.4167 7.09183 13.5008 6.94808 13.6688C6.80433 13.8368 6.75641 14.0323 6.80433 14.2553C7.07586 15.7088 7.71475 16.747 8.721 17.3699C9.72725 17.9928 10.7415 18.2723 11.7637 18.2084ZM11.5002 21.0834C9.31197 21.0834 7.48698 20.3327 6.02521 18.8313C4.56343 17.3299 3.83286 15.4612 3.8335 13.2251C3.8335 11.6279 4.46855 9.89072 5.73866 8.01367C7.00877 6.13661 8.92927 4.1043 11.5002 1.91675C14.0717 4.10494 15.9925 6.13757 17.2626 8.01462C18.5327 9.89168 19.1675 11.6285 19.1668 13.2251C19.1668 15.4612 18.4359 17.3299 16.9742 18.8313C15.5124 20.3327 13.6877 21.0834 11.5002 21.0834ZM11.5002 19.1667C13.1613 19.1667 14.5349 18.6036 15.621 17.4772C16.7071 16.3508 17.2502 14.9335 17.2502 13.2251C17.2502 12.0591 16.7668 10.7414 15.8002 9.27196C14.8336 7.80251 13.4002 6.1973 11.5002 4.45633C9.59947 6.1973 8.16612 7.80251 7.20012 9.27196C6.23412 10.7414 5.7508 12.0591 5.75016 13.2251C5.75016 14.9341 6.29322 16.3518 7.37933 17.4782C8.46544 18.6045 9.83905 19.1674 11.5002 19.1667Z" fill="#EDE6CD"/>
</svg>
