<svg width="495" height="179" viewBox="0 0 495 179" fill="none" xmlns="http://www.w3.org/2000/svg">
<g filter="url(#filter0_d_65_36)">
<path d="M50 49.75C50 38.8424 56.6988 30 64.9621 30H430.038C438.301 30 445 38.8424 445 49.75V89.25C445 100.158 438.301 109 430.038 109H64.9621C56.6988 109 50 100.158 50 89.25V49.75Z" fill="#10332D"/>
<path d="M50.25 49.75C50.25 44.3456 51.9098 39.4623 54.5816 35.9356C57.2532 32.409 60.9257 30.25 64.9621 30.25H430.038C434.074 30.25 437.747 32.409 440.418 35.9356C443.09 39.4623 444.75 44.3456 444.75 49.75V89.25C444.75 94.6544 443.09 99.5377 440.418 103.064C437.747 106.591 434.074 108.75 430.038 108.75H64.9621C60.9257 108.75 57.2532 106.591 54.5816 103.064C51.9098 99.5377 50.25 94.6544 50.25 89.25V49.75Z" stroke="#EDE6CD" stroke-opacity="0.35" stroke-width="0.5"/>
</g>
<defs>
<filter id="filter0_d_65_36" x="0" y="0" width="495" height="179" filterUnits="userSpaceOnUse" color-interpolation-filters="sRGB">
<feFlood flood-opacity="0" result="BackgroundImageFix"/>
<feColorMatrix in="SourceAlpha" type="matrix" values="0 0 0 0 0 0 0 0 0 0 0 0 0 0 0 0 0 0 127 0" result="hardAlpha"/>
<feOffset dy="20"/>
<feGaussianBlur stdDeviation="25"/>
<feComposite in2="hardAlpha" operator="out"/>
<feColorMatrix type="matrix" values="0 0 0 0 0 0 0 0 0 0 0 0 0 0 0 0 0 0 0.25 0"/>
<feBlend mode="normal" in2="BackgroundImageFix" result="effect1_dropShadow_65_36"/>
<feBlend mode="normal" in="SourceGraphic" in2="effect1_dropShadow_65_36" result="shape"/>
</filter>
</defs>
</svg>
