<svg width="28" height="28" viewBox="0 0 28 28" fill="none" xmlns="http://www.w3.org/2000/svg">
<circle cx="13.6955" cy="14.3044" r="12.4783" fill="#274641"/>
<path d="M11.8187 15.8059L17.3553 10.2693C17.5273 10.0973 17.7463 10.0112 18.0121 10.0112C18.278 10.0112 18.497 10.0973 18.669 10.2693C18.8411 10.4413 18.9271 10.6603 18.9271 10.9262C18.9271 11.1921 18.8411 11.411 18.669 11.5831L12.4756 17.7765C12.2879 17.9642 12.0689 18.0581 11.8187 18.0581C11.5684 18.0581 11.3495 17.9642 11.1618 17.7765L8.72193 15.3367C8.54989 15.1646 8.46387 14.9457 8.46387 14.6798C8.46387 14.4139 8.54989 14.195 8.72193 14.0229C8.89397 13.8509 9.11293 13.7649 9.37881 13.7649C9.64469 13.7649 9.86366 13.8509 10.0357 14.0229L11.8187 15.8059Z" fill="#EDE6CD"/>
</svg>
