<svg width="38" height="38" viewBox="0 0 38 38" fill="none" xmlns="http://www.w3.org/2000/svg">
<path d="M18.9998 37.3332C16.4637 37.3332 14.0804 36.8516 11.8498 35.8885C9.61928 34.9254 7.679 33.6194 6.029 31.9707C4.379 30.3207 3.07306 28.3804 2.11117 26.1498C1.14928 23.9193 0.667726 21.5359 0.666504 18.9998C0.666504 16.4637 1.14806 14.0804 2.11117 11.8498C3.07428 9.61928 4.38023 7.679 6.029 6.029C7.679 4.379 9.61928 3.07306 11.8498 2.11117C14.0804 1.14928 16.4637 0.667726 18.9998 0.666504C21.5359 0.666504 23.9193 1.14806 26.1498 2.11117C28.3804 3.07428 30.3207 4.38023 31.9707 6.029C33.6207 7.679 34.9272 9.61928 35.8903 11.8498C36.8534 14.0804 37.3344 16.4637 37.3332 18.9998C37.3332 21.5359 36.8516 23.9193 35.8885 26.1498C34.9254 28.3804 33.6194 30.3207 31.9707 31.9707C30.3207 33.6207 28.3804 34.9272 26.1498 35.8903C23.9193 36.8534 21.5359 37.3344 18.9998 37.3332Z" fill="black"/>
</svg>
