<svg width="38" height="38" viewBox="0 0 38 38" fill="none" xmlns="http://www.w3.org/2000/svg">
<path d="M18.9998 37.3334C16.4637 37.3334 14.0804 36.8518 11.8498 35.8887C9.61928 34.9256 7.679 33.6196 6.029 31.9709C4.379 30.3209 3.07306 28.3806 2.11117 26.15C1.14928 23.9195 0.667726 21.5361 0.666504 19C0.666504 16.4639 1.14806 14.0806 2.11117 11.85C3.07428 9.61947 4.38023 7.67919 6.029 6.02919C7.679 4.37919 9.61928 3.07324 11.8498 2.11135C14.0804 1.14946 16.4637 0.667909 18.9998 0.666687C21.5359 0.666687 23.9193 1.14824 26.1498 2.11135C28.3804 3.07447 30.3207 4.38041 31.9707 6.02919C33.6207 7.67919 34.9272 9.61947 35.8903 11.85C36.8534 14.0806 37.3344 16.4639 37.3332 19C37.3332 21.5361 36.8516 23.9195 35.8885 26.15C34.9254 28.3806 33.6194 30.3209 31.9707 31.9709C30.3207 33.6209 28.3804 34.9274 26.1498 35.8905C23.9193 36.8536 21.5359 37.3346 18.9998 37.3334Z" fill="black"/>
</svg>
