<svg width="242" height="167" viewBox="0 0 242 167" fill="none" xmlns="http://www.w3.org/2000/svg">
<g filter="url(#filter0_i_10_151)">
<path d="M239.604 85.7C238.818 84.3112 237.756 83.098 236.483 82.1349C235.21 81.1719 233.754 80.4794 232.204 80.1C221.754 77.5658 210.892 77.2253 200.304 79.1C204.804 59.3 201.904 43.8 198.904 34.8C198.002 31.9682 196.08 29.5721 193.512 28.0757C190.945 26.5793 187.913 26.0891 185.004 26.7C174.688 29.0348 164.934 33.3848 156.304 39.5C150.2 24.861 140.375 12.0716 127.804 2.4C125.727 0.842136 123.2 0 120.604 0C118.008 0 115.481 0.842136 113.404 2.4C100.833 12.0716 91.0085 24.861 84.9041 39.5C76.2738 33.3848 66.5204 29.0348 56.204 26.7C53.2954 26.0891 50.2636 26.5793 47.6957 28.0757C45.1277 29.5721 43.2065 31.9682 42.3041 34.8C39.3041 43.8 36.404 59.3 40.904 79.1C30.3159 77.2253 19.454 77.5658 9.00405 80.1C7.45387 80.4794 5.9977 81.1719 4.72509 82.1349C3.45249 83.098 2.39037 84.3112 1.60405 85.7C0.0184439 88.4925 -0.412228 91.7943 0.40405 94.9C3.80405 106.9 14.204 129.9 45.704 148.1C77.204 166.3 105.504 166.4 120.604 166.4C135.704 166.4 163.804 166.4 195.504 148.1C227.204 129.8 237.404 106.9 240.804 94.9C241.62 91.7943 241.19 88.4925 239.604 85.7ZM186.704 34.6C187.657 34.377 188.659 34.5206 189.511 35.0023C190.364 35.4839 191.003 36.2684 191.304 37.2C194.204 46.2 197.104 62.2 191.004 82.8C190.904 83 190.904 83.2 190.804 83.4C188.407 91.3136 185.048 98.9035 180.804 106C172.248 120.664 160.86 133.479 147.304 143.7L144.804 145.5C154.904 132.2 164.604 111.8 164.604 82.4C164.705 70.4529 162.882 58.5675 159.204 47.2C167.369 41.0895 176.745 36.7936 186.704 34.6ZM118.204 8.8C118.896 8.28071 119.739 8 120.604 8C121.47 8 122.312 8.28071 123.004 8.8C133.104 16.4 156.604 38.6 156.604 82.4C156.604 105.5 150.204 125.3 137.704 141.4C132.901 147.703 127.129 153.204 120.604 157.7C114.079 153.204 108.307 147.703 103.504 141.4C91.0041 125.3 84.604 105.5 84.604 82.4C84.604 38.6 108.104 16.4 118.204 8.8ZM49.904 37.2C50.2046 36.2684 50.8445 35.4839 51.6966 35.0023C52.5488 34.5206 53.5509 34.377 54.5041 34.6C64.4634 36.7936 73.8393 41.0895 82.0041 47.2C78.3264 58.5675 76.5031 70.4529 76.604 82.4C76.604 111.8 86.3041 132.2 96.4041 145.5L93.9041 143.7C80.3477 133.479 68.96 120.664 60.4041 106C56.1579 98.8693 52.7996 91.246 50.404 83.3L50.204 82.8C44.104 62.2 47.004 46.2 49.904 37.2ZM8.10405 92.7C7.96746 92.1985 7.93248 91.6748 8.00117 91.1596C8.06986 90.6444 8.24084 90.1482 8.50405 89.7C9.05745 88.8057 9.9066 88.1334 10.904 87.8C21.5598 85.3367 32.6333 85.3025 43.3041 87.7C45.8978 95.4597 49.2822 102.932 53.404 110C66.304 132.4 85.104 148.4 100.304 157.6C82.451 155.852 65.1885 150.257 49.704 141.2C20.604 124.4 11.2041 103.6 8.10405 92.7ZM233.104 92.7C230.004 103.6 220.604 124.4 191.504 141.2C176.02 150.257 158.757 155.852 140.904 157.6C156.104 148.4 174.904 132.4 187.804 110C191.926 102.932 195.31 95.4597 197.904 87.7C208.575 85.3025 219.648 85.3367 230.304 87.8C231.301 88.1334 232.151 88.8057 232.704 89.7C232.967 90.1482 233.138 90.6444 233.207 91.1596C233.276 91.6748 233.241 92.1985 233.104 92.7Z" fill="url(#paint0_linear_10_151)" fill-opacity="0.5"/>
</g>
<defs>
<filter id="filter0_i_10_151" x="0" y="0" width="241.208" height="170.4" filterUnits="userSpaceOnUse" color-interpolation-filters="sRGB">
<feFlood flood-opacity="0" result="BackgroundImageFix"/>
<feBlend mode="normal" in="SourceGraphic" in2="BackgroundImageFix" result="shape"/>
<feColorMatrix in="SourceAlpha" type="matrix" values="0 0 0 0 0 0 0 0 0 0 0 0 0 0 0 0 0 0 127 0" result="hardAlpha"/>
<feOffset dy="4"/>
<feGaussianBlur stdDeviation="2"/>
<feComposite in2="hardAlpha" operator="arithmetic" k2="-1" k3="1"/>
<feColorMatrix type="matrix" values="0 0 0 0 0 0 0 0 0 0 0 0 0 0 0 0 0 0 0.25 0"/>
<feBlend mode="normal" in2="shape" result="effect1_innerShadow_10_151"/>
</filter>
<linearGradient id="paint0_linear_10_151" x1="120.604" y1="0" x2="120.604" y2="166.4" gradientUnits="userSpaceOnUse">
<stop stop-color="#EDE6CD"/>
<stop offset="1" stop-color="#EDE6CD" stop-opacity="0"/>
</linearGradient>
</defs>
</svg>
