<svg width="643" height="65" viewBox="0 0 643 65" fill="none" xmlns="http://www.w3.org/2000/svg">
<g style="mix-blend-mode:lighten">
<path d="M0 8C0 3.58172 3.58172 0 8 0H635C639.418 0 643 3.58172 643 8V57C643 61.4183 639.418 65 635 65H8.00001C3.58173 65 0 61.4183 0 57V8Z" fill="#10332E"/>
<path d="M0.5 8C0.5 3.85786 3.85786 0.5 8 0.5H635C639.142 0.5 642.5 3.85786 642.5 8V57C642.5 61.1421 639.142 64.5 635 64.5H8.00001C3.85787 64.5 0.5 61.1421 0.5 57V8Z" stroke="#EDE6CD" stroke-opacity="0.7"/>
</g>
</svg>
