<svg width="30" height="30" viewBox="0 0 30 30" fill="none" xmlns="http://www.w3.org/2000/svg">
<g clip-path="url(#clip0_96_185)">
<circle cx="14.6743" cy="15.3261" r="13.3696" fill="#274641"/>
<path d="M15.222 7.28326C15.1564 7.22563 15.0721 7.19386 14.9847 7.19386C14.8974 7.19386 14.8131 7.22563 14.7475 7.28326C11.3584 10.2995 9.75708 13.8157 10.4646 16.7007C10.9433 18.6621 12.4175 20.077 14.6247 20.7083L14.6289 22.4664C14.6289 22.5131 14.6381 22.5594 14.656 22.6025C14.6739 22.6457 14.7001 22.6849 14.7331 22.718C14.7662 22.751 14.8054 22.7772 14.8486 22.7951C14.8917 22.813 14.938 22.8222 14.9847 22.8222C15.0315 22.8222 15.0777 22.813 15.1209 22.7951C15.1641 22.7772 15.2033 22.751 15.2364 22.718C15.2694 22.6849 15.2956 22.6457 15.3135 22.6025C15.3314 22.5594 15.3406 22.5131 15.3406 22.4664L15.3448 20.7083C16.4844 20.3821 17.4291 19.844 18.1408 19.1323C18.8109 18.4629 19.2829 17.6214 19.5049 16.7007C20.2124 13.8157 18.6111 10.2995 15.222 7.28326ZM18.8059 16.527C18.4035 18.1665 17.1792 19.3738 15.3448 19.9542L15.3406 12.2991C15.3406 12.2047 15.3031 12.1142 15.2364 12.0475C15.1696 11.9807 15.0791 11.9432 14.9847 11.9432C14.8904 11.9432 14.7999 11.9807 14.7331 12.0475C14.6664 12.1142 14.6289 12.2047 14.6289 12.2991L14.6247 19.9542C12.7903 19.3738 11.566 18.1665 11.1636 16.527C10.5366 13.9767 11.9642 10.8206 14.9847 8.03733C18.0053 10.8206 19.4329 13.9767 18.8059 16.527Z" fill="#EDE6CD"/>
</g>
<defs>
<clipPath id="clip0_96_185">
<rect width="30" height="30" fill="white"/>
</clipPath>
</defs>
</svg>
