<svg width="30" height="30" viewBox="0 0 30 30" fill="none" xmlns="http://www.w3.org/2000/svg">
<g clip-path="url(#clip0_69_143)">
<circle cx="14.6743" cy="15.3261" r="13.3696" fill="#274641"/>
<path d="M15.222 7.28314C15.1564 7.22551 15.0721 7.19373 14.9847 7.19373C14.8974 7.19373 14.8131 7.22551 14.7475 7.28314C11.3584 10.2994 9.75708 13.8156 10.4646 16.7006C10.9433 18.662 12.4175 20.0769 14.6247 20.7081L14.6289 22.4662C14.6289 22.513 14.6381 22.5592 14.656 22.6024C14.6739 22.6456 14.7001 22.6848 14.7331 22.7179C14.7662 22.7509 14.8054 22.7771 14.8486 22.795C14.8917 22.8129 14.938 22.8221 14.9847 22.8221C15.0315 22.8221 15.0777 22.8129 15.1209 22.795C15.1641 22.7771 15.2033 22.7509 15.2364 22.7179C15.2694 22.6848 15.2956 22.6456 15.3135 22.6024C15.3314 22.5592 15.3406 22.513 15.3406 22.4662L15.3448 20.7081C16.4844 20.3819 17.4291 19.8439 18.1408 19.1322C18.8109 18.4628 19.2829 17.6213 19.5049 16.7006C20.2124 13.8156 18.6111 10.2994 15.222 7.28314ZM18.8059 16.5269C18.4035 18.1663 17.1792 19.3737 15.3448 19.9541L15.3406 12.299C15.3406 12.2046 15.3031 12.1141 15.2364 12.0474C15.1696 11.9806 15.0791 11.9431 14.9847 11.9431C14.8904 11.9431 14.7999 11.9806 14.7331 12.0474C14.6664 12.1141 14.6289 12.2046 14.6289 12.299L14.6247 19.9541C12.7903 19.3737 11.566 18.1663 11.1636 16.5269C10.5366 13.9766 11.9642 10.8205 14.9847 8.03721C18.0053 10.8205 19.4329 13.9766 18.8059 16.5269Z" fill="#EDE6CD"/>
</g>
<defs>
<clipPath id="clip0_69_143">
<rect width="30" height="30" fill="white"/>
</clipPath>
</defs>
</svg>
