<svg width="13" height="11" viewBox="0 0 13 11" fill="none" xmlns="http://www.w3.org/2000/svg">
<path d="M5.6225 10.6733L4.50125 9.69307C3.35292 8.68694 2.31552 7.68849 1.38905 6.69771C0.462584 5.70693 -0.000433029 4.61533 3.0388e-07 3.42291C3.0388e-07 2.4479 0.34125 1.63366 1.02375 0.980199C1.70625 0.326734 2.55667 1.10345e-06 3.575 1.10345e-06C4.14917 1.10345e-06 4.69083 0.116587 5.2 0.34976C5.70917 0.582933 6.1425 0.90199 6.5 1.30693C6.8575 0.902405 7.29083 0.583348 7.8 0.34976C8.30917 0.116173 8.85083 -0.000413795 9.425 1.10345e-06C10.4433 1.10345e-06 11.2937 0.326734 11.9762 0.980199C12.6587 1.63366 13 2.4479 13 3.42291C13 4.61575 12.5396 5.71004 11.6187 6.7058C10.6979 7.70156 9.6525 8.7025 8.4825 9.70863L7.3775 10.6733C7.12833 10.8911 6.83583 11 6.5 11C6.16417 11 5.87167 10.8911 5.6225 10.6733Z" fill="#EDE6CD"/>
</svg>
