<svg width="13" height="11" viewBox="0 0 13 11" fill="none" xmlns="http://www.w3.org/2000/svg">
<path d="M11.4773 0.617513C9.76192 -0.504496 7.64374 0.0191079 6.50018 1.30319C5.35662 0.0191079 3.23843 -0.51073 1.52309 0.617513C0.613442 1.21592 0.0416616 2.22573 0.00267663 3.29164C-0.0882884 5.71019 2.14685 7.64877 5.55804 10.6221L5.62302 10.6782C6.11683 11.1083 6.87703 11.1083 7.37084 10.672L7.44232 10.6096C10.8535 7.64254 13.0821 5.70396 12.9977 3.2854C12.9587 2.22573 12.3869 1.21592 11.4773 0.617513ZM6.56515 9.69332L6.50018 9.75566L6.4352 9.69332C3.34239 7.00673 1.30218 5.23022 1.30218 3.42877C1.30218 2.18209 2.2768 1.24708 3.5763 1.24708C4.57692 1.24708 5.55154 1.86419 5.89591 2.71816H7.11094C7.44881 1.86419 8.42344 1.24708 9.42405 1.24708C10.7236 1.24708 11.6982 2.18209 11.6982 3.42877C11.6982 5.23022 9.65796 7.00673 6.56515 9.69332Z" fill="#EDE6CD"/>
</svg>
