<svg width="49" height="50" viewBox="0 0 49 50" fill="none" xmlns="http://www.w3.org/2000/svg">
<path d="M44.5228 28.4328C44.9775 28.4328 45.4136 28.6171 45.7352 28.9453C46.0567 29.2735 46.2373 29.7187 46.2373 30.1828V44.8679C46.3035 46.898 46.0634 48.2305 45.1743 49.068C44.3465 49.8455 43.1463 50.068 41.591 49.983H7.69979C6.12243 49.903 4.89777 49.2505 4.32953 47.933C3.95234 47.0655 3.77599 46.0404 3.77599 44.8629V30.1803C3.77599 29.7162 3.95662 29.271 4.27816 28.9428C4.59969 28.6147 5.03579 28.4303 5.49051 28.4303C5.94523 28.4303 6.38132 28.6147 6.70286 28.9428C7.02439 29.271 7.20503 29.7162 7.20503 30.1803V44.8629C7.20503 45.4429 7.26871 45.9129 7.37648 46.2679L7.46466 46.5129L7.45731 46.4879C7.45976 46.4554 7.53079 46.4679 7.78062 46.4829H41.6792C42.2792 46.5179 42.6613 46.4829 42.796 46.4804L42.8058 46.4779C42.774 46.3454 42.8352 45.8029 42.8058 44.9229V30.1803C42.8058 29.9503 42.8503 29.7225 42.9366 29.51C43.0229 29.2975 43.1494 29.1045 43.3089 28.942C43.4683 28.7794 43.6576 28.6506 43.8659 28.5628C44.0742 28.475 44.2975 28.4299 44.5228 28.4303V28.4328ZM25.5553 0C26.2019 0 26.78 0.260002 27.3237 0.742507L48.4491 21.0902C48.6157 21.2473 48.7501 21.4367 48.8445 21.6472C48.9389 21.8577 48.9914 22.0853 48.999 22.3167C49.0067 22.5481 48.9692 22.7787 48.8889 22.9953C48.8086 23.2118 48.6869 23.4099 48.531 23.5781C48.3752 23.7463 48.1881 23.8813 47.9808 23.9752C47.7734 24.069 47.5499 24.12 47.3231 24.1251C47.0963 24.1302 46.8708 24.0893 46.6596 24.0048C46.4484 23.9202 46.2558 23.7938 46.0928 23.6327L25.4769 3.77254L2.83545 23.6852C2.49116 23.9886 2.04292 24.1399 1.58932 24.1059C1.13573 24.0719 0.71394 23.8554 0.416748 23.504C0.119557 23.1526 -0.028695 22.695 0.00460682 22.232C0.0379087 21.7691 0.250036 21.3385 0.594324 21.0352L23.7306 0.692507L23.9412 0.532505C24.4654 0.197502 24.9895 0.00250002 25.5578 0.00250002L25.5553 0Z" fill="#EDE6CD"/>
</svg>
