<svg width="49" height="45" viewBox="0 0 49 45" fill="none" xmlns="http://www.w3.org/2000/svg">
<path d="M0 41.7857H14V45H0V41.7857ZM26.25 43.3929C25.9879 43.3927 25.7291 43.3385 25.4928 43.2342C25.2566 43.1298 25.0488 42.9781 24.885 42.7902L18.41 35.3571H0V32.1429H19.25C19.5121 32.143 19.7709 32.1972 20.0072 32.3016C20.2434 32.4059 20.4512 32.5576 20.615 32.7455L26.1222 39.0648L35.294 26.4295C35.4493 26.2156 35.6582 26.0391 35.9031 25.9148C36.148 25.7904 36.4219 25.7218 36.7016 25.7147C36.9814 25.7076 37.2589 25.7623 37.5109 25.8741C37.763 25.9858 37.9821 26.1515 38.15 26.3571L42.875 32.1429H49V35.3571H42C41.7283 35.3571 41.4604 35.299 41.2174 35.1875C40.9744 35.0759 40.763 34.9139 40.6 34.7143L36.834 30.1018L27.706 42.6777C27.5533 42.8881 27.3486 43.0624 27.1087 43.1864C26.8688 43.3104 26.6003 43.3806 26.3253 43.3913L26.25 43.3929ZM15.75 22.5V14.4643H17.5C19.3558 14.4622 21.1349 13.7842 22.4472 12.5791C23.7594 11.3739 24.4977 9.74002 24.5 8.03571V3.21429H19.25C17.458 3.21698 15.7361 3.85423 14.4428 4.99339C13.5365 3.48231 12.2057 2.22201 10.5889 1.34378C8.9721 0.465547 7.12845 0.00150908 5.25 0H0V4.82143C0.00324207 7.37796 1.11053 9.82893 3.07896 11.6367C5.04739 13.4444 7.71622 14.4613 10.5 14.4643H12.25V22.5H0V25.7143H24.5V22.5H15.75ZM19.25 6.42857H21V8.03571C20.9991 8.88793 20.63 9.70501 19.9739 10.3076C19.3177 10.9102 18.428 11.2491 17.5 11.25H15.75V9.64286C15.7509 8.79064 16.12 7.97357 16.7761 7.37095C17.4323 6.76834 18.322 6.42942 19.25 6.42857ZM10.5 11.25C8.6442 11.2479 6.86506 10.5699 5.55281 9.36477C4.24056 8.15964 3.50232 6.52574 3.5 4.82143V3.21429H5.25C7.1058 3.21641 8.88494 3.89439 10.1972 5.09952C11.5094 6.30465 12.2477 7.93855 12.25 9.64286V11.25H10.5Z" fill="#EDE6CD"/>
</svg>
