<svg width="52" height="52" viewBox="0 0 52 52" fill="none" xmlns="http://www.w3.org/2000/svg">
<path d="M5.05405 5.28571H3.7027C2.9859 5.28571 2.29846 5.58673 1.7916 6.12255C1.28475 6.65837 1 7.3851 1 8.14286V48.1429C1 48.9006 1.28475 49.6273 1.7916 50.1632C2.29846 50.699 2.9859 51 3.7027 51H48.2973C49.0141 51 49.7015 50.699 50.2084 50.1632C50.7153 49.6273 51 48.9006 51 48.1429V8.14286C51 7.3851 50.7153 6.65837 50.2084 6.12255C49.7015 5.58673 49.0141 5.28571 48.2973 5.28571H46.9459M38.8378 5.28571H13.1622M42.8919 9.57143V1M9.10811 9.57143V1" stroke="#EDE6CD" stroke-width="2" stroke-linecap="round" stroke-linejoin="round"/>
</svg>
