<svg width="27" height="28" viewBox="0 0 27 28" fill="none" xmlns="http://www.w3.org/2000/svg">
<path d="M17.5224 0C18.0296 0 18.488 0.417187 18.4505 0.969375C18.1805 5.89031 13.8924 9.84375 8.68174 9.84375H4.89424C4.81361 9.85031 4.73299 9.85313 4.65049 9.85313H2.81299C2.55049 9.85313 2.34424 9.6375 2.34424 9.38438C2.34424 9.13125 2.55049 8.925 2.81299 8.925H3.87236V8.14594C3.87236 3.6675 7.68799 0.0459374 12.203 0.00843745H12.2067L17.5224 0ZM6.96892 8.90625H8.68361C13.4199 8.90625 17.2636 5.32125 17.5139 0.9375L12.2124 0.946875H12.2105C8.17549 0.980625 4.8108 4.21781 4.8108 8.14594V8.90625H4.93455C5.28143 8.85938 5.61049 8.72813 5.8983 8.52188L14.1014 2.67188C14.1714 2.62339 14.2534 2.59501 14.3384 2.58982C14.4234 2.58464 14.5082 2.60285 14.5835 2.64247C14.6589 2.68209 14.722 2.7416 14.7659 2.81455C14.8098 2.88751 14.8329 2.9711 14.8327 3.05625C14.8327 3.20625 14.767 3.34688 14.6358 3.44063L6.96892 8.90625Z" fill="#EDE6CD"/>
<path d="M25.3184 5.16553H23.9534C17.1453 5.16553 11.719 11.053 11.6628 17.9643L11.7143 26.0062V26.0127V26.0099C11.7171 26.8855 12.4324 27.703 13.4037 27.6355C20.8812 27.2165 26.719 20.6258 26.719 12.6655V6.9974C26.7321 6.85678 26.7378 6.71428 26.7378 6.57178L26.719 3.05615C26.719 2.86967 26.6449 2.69083 26.5131 2.55897C26.3812 2.42711 26.2024 2.35303 26.0159 2.35303C25.8294 2.35303 25.6506 2.42711 25.5187 2.55897C25.3868 2.69083 25.3128 2.86967 25.3128 3.05615L25.3184 5.16553ZM16.0606 21.8249C16.2129 21.9324 16.4013 21.9759 16.5853 21.9461C16.7693 21.9163 16.9343 21.8156 17.0449 21.6655L24.844 10.7277V12.6655C24.844 19.6312 19.8349 25.2337 13.5893 25.7437L13.5387 17.9727C13.5893 11.9868 18.2815 7.04053 23.9524 7.04053H24.844V8.2724C24.806 8.33535 24.7653 8.39666 24.7221 8.45615L15.8909 20.8405C15.6659 21.1593 15.7409 21.5999 16.0596 21.8249H16.0606ZM0.00119475 14.8799C-0.0241178 14.4215 0.356507 14.0718 0.788695 14.0718L4.44682 14.0812C7.61182 14.0999 10.3137 16.5852 10.3137 19.6865V20.1655C10.4312 20.1673 10.5439 20.2122 10.6303 20.2917C10.7168 20.3713 10.7709 20.4799 10.7824 20.5968C10.7918 20.8687 10.5856 21.0937 10.3137 21.0937H6.86276C3.20557 21.0937 0.193382 18.2708 0.000257205 14.8799H0.00119475ZM9.37619 20.1393V19.6865C9.37619 17.1552 7.14494 15.0346 4.44213 15.0177L0.950882 15.0093C1.21057 17.7983 3.74463 20.1562 6.86276 20.1562H7.41026L3.92838 17.6718C3.82912 17.5995 3.76253 17.4909 3.7432 17.3696C3.72388 17.2484 3.75338 17.1244 3.82526 17.0249C3.83463 17.0249 3.83463 17.0155 3.83463 17.0155C3.98463 16.8093 4.26588 16.7624 4.47213 16.9124L8.46588 19.7624C8.73963 19.9593 9.04901 20.0868 9.37526 20.1393H9.37619Z" fill="#EDE6CD"/>
</svg>
