<svg width="17" height="27" viewBox="0 0 17 27" fill="none" xmlns="http://www.w3.org/2000/svg">
<mask id="path-1-inside-1_13_195" fill="white">
<path d="M8.64771 0.469965C8.53882 0.374317 8.39885 0.321568 8.25392 0.321568C8.10899 0.321567 7.96901 0.374319 7.86013 0.469967C2.23457 5.47672 -0.423507 11.3132 0.750829 16.102C1.54544 19.3578 3.99256 21.7065 7.6562 22.7542L7.66324 25.6725C7.66323 25.75 7.67851 25.8269 7.7082 25.8985C7.73788 25.9702 7.78139 26.0353 7.83624 26.0901C7.89109 26.145 7.95621 26.1885 8.02787 26.2182C8.09954 26.2479 8.17635 26.2632 8.25392 26.2632C8.33149 26.2632 8.4083 26.2479 8.47996 26.2182C8.55163 26.1885 8.61674 26.145 8.6716 26.0901C8.72645 26.0353 8.76995 25.9702 8.79964 25.8985C8.82932 25.8269 8.8446 25.75 8.8446 25.6725L8.85163 22.7542C10.7432 22.2128 12.3114 21.3197 13.4927 20.1383C14.6049 19.0272 15.3885 17.6303 15.757 16.102C16.9313 11.3132 14.2733 5.47671 8.64771 0.469965ZM14.5967 15.8137C13.9287 18.535 11.8965 20.5391 8.85163 21.5025L8.8446 8.79579C8.8446 8.63913 8.78237 8.48889 8.6716 8.37812C8.56082 8.26734 8.41058 8.20511 8.25392 8.20511C8.09726 8.20511 7.94702 8.26734 7.83624 8.37812C7.72547 8.48889 7.66324 8.63913 7.66324 8.79579L7.6562 21.5025C4.61137 20.5391 2.57914 18.535 1.9111 15.8137C0.870372 11.5804 3.24014 6.34164 8.25392 1.72165C13.2677 6.34164 15.6375 11.5804 14.5967 15.8137Z"/>
</mask>
<path d="M8.64771 0.469965C8.53882 0.374317 8.39885 0.321568 8.25392 0.321568C8.10899 0.321567 7.96901 0.374319 7.86013 0.469967C2.23457 5.47672 -0.423507 11.3132 0.750829 16.102C1.54544 19.3578 3.99256 21.7065 7.6562 22.7542L7.66324 25.6725C7.66323 25.75 7.67851 25.8269 7.7082 25.8985C7.73788 25.9702 7.78139 26.0353 7.83624 26.0901C7.89109 26.145 7.95621 26.1885 8.02787 26.2182C8.09954 26.2479 8.17635 26.2632 8.25392 26.2632C8.33149 26.2632 8.4083 26.2479 8.47996 26.2182C8.55163 26.1885 8.61674 26.145 8.6716 26.0901C8.72645 26.0353 8.76995 25.9702 8.79964 25.8985C8.82932 25.8269 8.8446 25.75 8.8446 25.6725L8.85163 22.7542C10.7432 22.2128 12.3114 21.3197 13.4927 20.1383C14.6049 19.0272 15.3885 17.6303 15.757 16.102C16.9313 11.3132 14.2733 5.47671 8.64771 0.469965ZM14.5967 15.8137C13.9287 18.535 11.8965 20.5391 8.85163 21.5025L8.8446 8.79579C8.8446 8.63913 8.78237 8.48889 8.6716 8.37812C8.56082 8.26734 8.41058 8.20511 8.25392 8.20511C8.09726 8.20511 7.94702 8.26734 7.83624 8.37812C7.72547 8.48889 7.66324 8.63913 7.66324 8.79579L7.6562 21.5025C4.61137 20.5391 2.57914 18.535 1.9111 15.8137C0.870372 11.5804 3.24014 6.34164 8.25392 1.72165C13.2677 6.34164 15.6375 11.5804 14.5967 15.8137Z" fill="#EDE6CD"/>
<path d="M8.64771 0.469965L173.525 -184.785L172.924 -185.32L172.319 -185.851L8.64771 0.469965ZM7.86013 0.469967L-155.812 -185.851L-156.416 -185.32L-157.017 -184.785L7.86013 0.469967ZM0.750829 16.102L241.679 -42.6991L241.647 -42.8317L241.614 -42.9644L0.750829 16.102ZM7.6562 22.7542L255.655 22.1566L255.206 -164.392L75.8475 -215.686L7.6562 22.7542ZM7.66324 25.6725L255.663 25.6725V25.3737L255.663 25.0748L7.66324 25.6725ZM7.83624 26.0901L183.199 -149.272L7.83624 26.0901ZM8.8446 25.6725L-239.155 25.0749L-239.155 25.3737V25.6725L8.8446 25.6725ZM8.85163 22.7542L-59.3962 -215.67L-238.698 -164.346L-239.148 22.1566L8.85163 22.7542ZM13.4927 20.1383L-161.787 -155.307L-161.828 -155.266L-161.87 -155.224L13.4927 20.1383ZM15.757 16.102L-225.106 -42.9644L-225.221 -42.4956L-225.334 -42.0264L15.757 16.102ZM14.5967 15.8137L-226.232 -43.3934L-226.242 -43.3515L-226.253 -43.3096L14.5967 15.8137ZM8.85163 21.5025L-239.148 21.6398L-238.961 360.027L83.6629 257.95L8.85163 21.5025ZM8.8446 8.79579L-239.155 8.79579V8.86443L-239.155 8.93305L8.8446 8.79579ZM8.6716 8.37812L184.034 -166.984L8.6716 8.37812ZM7.83624 8.37812L183.199 183.741L7.83624 8.37812ZM7.66324 8.79579L255.663 8.93304L255.663 8.86442V8.7958L7.66324 8.79579ZM7.6562 21.5025L-67.155 257.95L255.469 360.027L255.656 21.6398L7.6562 21.5025ZM1.9111 15.8137L242.761 -43.3096L242.75 -43.3515L242.74 -43.3934L1.9111 15.8137ZM8.25392 1.72165L176.308 -180.657L8.25391 -335.511L-159.8 -180.657L8.25392 1.72165ZM172.319 -185.851C126.955 -225.701 68.6372 -247.678 8.25393 -247.678V248.322C-51.8395 248.322 -109.878 226.449 -155.024 186.791L172.319 -185.851ZM8.25393 -247.678C-52.1298 -247.678 -110.448 -225.701 -155.812 -185.851L171.532 186.791C126.386 226.449 68.3478 248.322 8.25393 248.322V-247.678ZM-157.017 -184.785C-191.432 -154.156 -273.471 -60.8611 -240.113 75.1683L241.614 -42.9644C257.313 21.0532 243.465 75.9583 227.491 111.069C211.565 146.075 190.084 170.287 172.737 185.725L-157.017 -184.785ZM-240.177 74.9031C-214.861 178.633 -135.152 239.855 -60.5351 261.195L75.8475 -215.686C107.037 -206.766 142.931 -189.392 175.099 -158.433C208.088 -126.685 231.013 -86.4009 241.679 -42.6991L-240.177 74.9031ZM-240.343 23.3518L-240.336 26.2701L255.663 25.0748L255.655 22.1566L-240.343 23.3518ZM-240.337 25.6725C-240.337 58.3177 -233.907 90.6435 -221.414 120.804L236.83 -69.007C249.264 -38.9898 255.663 -6.81765 255.663 25.6725L-240.337 25.6725ZM-221.414 120.804C-208.921 150.964 -190.61 178.368 -167.526 201.453L183.199 -149.272C206.173 -126.298 224.397 -99.0235 236.83 -69.007L-221.414 120.804ZM-167.526 201.453C-144.443 224.536 -117.038 242.847 -86.8776 255.34L102.933 -202.904C132.951 -190.47 160.225 -172.246 183.199 -149.272L-167.526 201.453ZM-86.8776 255.34C-56.7171 267.833 -24.3913 274.263 8.25393 274.263V-221.737C40.744 -221.737 72.9162 -215.337 102.933 -202.904L-86.8776 255.34ZM8.25393 274.263C40.8992 274.263 73.2249 267.833 103.385 255.34L-86.4255 -202.904C-56.4084 -215.337 -24.2362 -221.737 8.25393 -221.737V274.263ZM103.385 255.34C133.545 242.848 160.949 224.537 184.034 201.453L-166.691 -149.272C-143.716 -172.247 -116.441 -190.471 -86.4255 -202.904L103.385 255.34ZM184.034 201.453C207.119 178.368 225.429 150.963 237.922 120.804L-220.322 -69.007C-207.89 -99.0227 -189.666 -126.297 -166.691 -149.272L184.034 201.453ZM237.922 120.804C250.415 90.6436 256.845 58.3178 256.845 25.6725L-239.155 25.6725C-239.155 -6.81777 -232.756 -38.9899 -220.322 -69.007L237.922 120.804ZM256.844 26.2701L256.851 23.3518L-239.148 22.1566L-239.155 25.0749L256.844 26.2701ZM77.0995 261.179C113.453 250.773 153.769 230.587 188.855 195.501L-161.87 -155.224C-129.146 -187.948 -91.967 -206.347 -59.3962 -215.67L77.0995 261.179ZM188.772 195.584C222.211 162.177 245.77 120.181 256.848 74.2304L-225.334 -42.0264C-214.993 -84.9201 -193.001 -124.122 -161.787 -155.307L188.772 195.584ZM256.62 75.1683C289.979 -60.8611 207.94 -154.156 173.525 -184.785L-156.229 185.725C-173.576 170.287 -195.057 146.075 -210.983 111.069C-226.957 75.9583 -240.805 21.0532 -225.106 -42.9644L256.62 75.1683ZM-226.253 -43.3096C-202.95 -138.239 -131.081 -194.341 -65.9596 -214.945L83.6629 257.95C154.874 235.419 230.807 175.309 255.446 74.9369L-226.253 -43.3096ZM256.852 21.3653L256.845 8.65853L-239.155 8.93305L-239.148 21.6398L256.852 21.3653ZM256.845 8.79579C256.845 -57.1338 230.654 -120.364 184.034 -166.984L-166.691 183.741C-213.09 137.342 -239.155 74.412 -239.155 8.79579H256.845ZM184.034 -166.984C137.414 -213.605 74.1835 -239.795 8.25393 -239.795V256.205C-57.3623 256.205 -120.292 230.139 -166.691 183.741L184.034 -166.984ZM8.25393 -239.795C-57.676 -239.795 -120.906 -213.604 -167.526 -166.984L183.199 183.741C136.8 230.139 73.8705 256.205 8.25393 256.205V-239.795ZM-167.526 -166.984C-214.146 -120.364 -240.337 -57.1341 -240.337 8.7958H255.663C255.663 74.4124 229.597 137.342 183.199 183.741L-167.526 -166.984ZM-240.337 8.65854L-240.344 21.3653L255.656 21.6398L255.663 8.93304L-240.337 8.65854ZM82.4674 -214.945C147.588 -194.341 219.457 -138.239 242.761 -43.3096L-238.938 74.9369C-214.299 175.309 -138.366 235.419 -67.155 257.95L82.4674 -214.945ZM242.74 -43.3934C258.682 21.4513 244.347 76.5636 228.909 110.816C213.421 145.18 192.703 168.993 176.308 184.1L-159.8 -180.657C-190.345 -152.511 -272.174 -60.2532 -238.918 75.0208L242.74 -43.3934ZM-159.8 184.1C-176.195 168.993 -196.913 145.18 -212.401 110.816C-227.839 76.5636 -242.174 21.4512 -226.232 -43.3934L255.426 75.0208C288.682 -60.2532 206.853 -152.511 176.308 -180.657L-159.8 184.1Z" fill="#EDE6CD" mask="url(#path-1-inside-1_13_195)"/>
</svg>
