<svg width="37" height="37" viewBox="0 0 37 37" fill="none" xmlns="http://www.w3.org/2000/svg">
<path d="M36.707 1.19956C36.6886 0.915512 36.5675 0.647867 36.3662 0.446596C36.1649 0.245326 35.8973 0.12419 35.6132 0.105808C20.8476 -0.753567 9.05072 3.66049 4.03119 11.9417C0.613222 17.5667 0.749941 24.2269 4.38275 30.7699L0.339784 34.8324C0.232059 34.9401 0.146608 35.068 0.0883073 35.2087C0.0300069 35.3495 3.93199e-09 35.5003 0 35.6527C-3.93198e-09 35.805 0.0300069 35.9559 0.0883073 36.0966C0.146608 36.2374 0.232059 36.3653 0.339784 36.473C0.447509 36.5807 0.575397 36.6662 0.716147 36.7245C0.856896 36.7828 1.00775 36.8128 1.1601 36.8128C1.31244 36.8128 1.4633 36.7828 1.60405 36.7245C1.7448 36.6662 1.87268 36.5807 1.98041 36.473L6.04291 32.43C9.42182 34.305 12.8398 35.2425 16.121 35.2425C19.2087 35.244 22.2368 34.3923 24.871 32.7816C33.1523 27.7621 37.5663 15.9652 36.707 1.19956ZM23.6601 30.7699C18.9531 33.6214 13.3476 33.5824 7.78119 30.6917L25.4179 13.0355C25.6355 12.8179 25.7577 12.5229 25.7577 12.2152C25.7577 11.9075 25.6355 11.6124 25.4179 11.3949C25.2003 11.1773 24.9053 11.0551 24.5976 11.0551C24.2899 11.0551 23.9948 11.1773 23.7773 11.3949L6.12104 29.0316C3.23041 23.4652 3.19135 17.8597 6.04291 13.1527C10.4765 5.82847 21.0429 1.84409 34.4218 2.39096C34.9687 15.7699 30.9843 26.3363 23.6601 30.7699Z" fill="#EDE6CD"/>
</svg>
