<svg width="223" height="154" viewBox="0 0 223 154" fill="none" xmlns="http://www.w3.org/2000/svg">
<g filter="url(#filter0_i_227_6)">
<path d="M221.517 79.3137C220.79 78.0284 219.808 76.9056 218.632 76.0143C217.455 75.123 216.109 74.4821 214.676 74.131C205.015 71.7856 194.973 71.4705 185.184 73.2055C189.344 54.881 186.663 40.5361 183.889 32.2067C183.055 29.586 181.279 27.3684 178.905 25.9835C176.531 24.5986 173.728 24.145 171.039 24.7103C161.501 26.8712 152.484 30.897 144.505 36.5565C138.861 23.0083 129.778 11.1721 118.157 2.22116C116.236 0.779381 113.9 0 111.5 0C109.1 0 106.764 0.779381 104.844 2.22116C93.2216 11.1721 84.1386 23.0083 78.4949 36.5565C70.5161 30.897 61.4989 26.8712 51.9614 24.7103C49.2723 24.145 46.4693 24.5986 44.0952 25.9835C41.7212 27.3684 39.945 29.586 39.1106 32.2067C36.3371 40.5361 33.656 54.881 37.8163 73.2055C28.0274 71.4705 17.9855 71.7856 8.32436 74.131C6.8912 74.4821 5.54495 75.123 4.36841 76.0143C3.19187 76.9056 2.20992 78.0284 1.48297 79.3137C0.0170516 81.8981 -0.38111 84.9538 0.37355 87.8281C3.51689 98.9339 13.1318 120.22 42.254 137.064C71.3761 153.907 97.5398 154 111.5 154C125.46 154 151.439 154 180.746 137.064C210.053 120.127 219.483 98.9339 222.626 87.8281C223.381 84.9538 222.983 81.8981 221.517 79.3137ZM172.61 32.0216C173.492 31.8153 174.418 31.9482 175.206 32.3939C175.994 32.8397 176.585 33.5657 176.863 34.4279C179.544 42.7572 182.225 57.5649 176.586 76.6298C176.493 76.8149 176.493 77 176.401 77.1851C174.184 84.509 171.079 91.5333 167.156 98.101C159.246 111.672 148.718 123.533 136.184 132.992L133.873 134.657C143.211 122.349 152.179 103.469 152.179 76.2596C152.272 65.2028 150.586 54.2031 147.186 43.6827C154.735 38.0275 163.403 34.0518 172.61 32.0216ZM109.281 8.14423C109.921 7.66364 110.7 7.40385 111.5 7.40385C112.3 7.40385 113.079 7.66364 113.719 8.14423C123.056 15.1779 144.782 35.7236 144.782 76.2596C144.782 97.6382 138.866 115.963 127.309 130.863C122.869 136.696 117.533 141.787 111.5 145.948C105.467 141.787 100.131 136.696 95.6908 130.863C84.1344 115.963 78.2175 97.6382 78.2175 76.2596C78.2175 35.7236 99.9436 15.1779 109.281 8.14423ZM46.1369 34.4279C46.4148 33.5657 47.0064 32.8397 47.7942 32.3939C48.582 31.9482 49.5085 31.8153 50.3897 32.0216C59.5973 34.0518 68.2654 38.0275 75.8138 43.6827C72.4138 54.2031 70.7281 65.2028 70.8214 76.2596C70.8214 103.469 79.7892 122.349 89.1268 134.657L86.8155 132.992C74.2825 123.533 63.7544 111.672 55.8443 98.101C51.9187 91.5016 48.8139 84.4464 46.5992 77.0926L46.4143 76.6298C40.7748 57.5649 43.4558 42.7572 46.1369 34.4279ZM7.4923 85.7921C7.36602 85.328 7.33368 84.8433 7.39719 84.3665C7.46069 83.8897 7.61876 83.4304 7.8621 83.0156C8.37373 82.188 9.15878 81.5658 10.0809 81.2572C19.9323 78.9775 30.1699 78.9458 40.0352 81.1647C42.4331 88.3462 45.5621 95.2619 49.3727 101.803C61.299 122.534 78.6798 137.341 92.7324 145.856C76.227 144.238 60.2676 139.06 45.952 130.678C19.0487 115.13 10.3583 95.8798 7.4923 85.7921ZM215.508 85.7921C212.642 95.8798 203.951 115.13 177.048 130.678C162.732 139.06 146.773 144.238 130.268 145.856C144.32 137.341 161.701 122.534 173.627 101.803C177.438 95.2619 180.567 88.3462 182.965 81.1647C192.83 78.9458 203.068 78.9775 212.919 81.2572C213.841 81.5658 214.626 82.188 215.138 83.0156C215.381 83.4304 215.539 83.8897 215.603 84.3665C215.666 84.8433 215.634 85.328 215.508 85.7921Z" fill="url(#paint0_linear_227_6)" fill-opacity="0.2"/>
</g>
<defs>
<filter id="filter0_i_227_6" x="0" y="0" width="223" height="158" filterUnits="userSpaceOnUse" color-interpolation-filters="sRGB">
<feFlood flood-opacity="0" result="BackgroundImageFix"/>
<feBlend mode="normal" in="SourceGraphic" in2="BackgroundImageFix" result="shape"/>
<feColorMatrix in="SourceAlpha" type="matrix" values="0 0 0 0 0 0 0 0 0 0 0 0 0 0 0 0 0 0 127 0" result="hardAlpha"/>
<feOffset dy="4"/>
<feGaussianBlur stdDeviation="2"/>
<feComposite in2="hardAlpha" operator="arithmetic" k2="-1" k3="1"/>
<feColorMatrix type="matrix" values="0 0 0 0 0 0 0 0 0 0 0 0 0 0 0 0 0 0 0.25 0"/>
<feBlend mode="normal" in2="shape" result="effect1_innerShadow_227_6"/>
</filter>
<linearGradient id="paint0_linear_227_6" x1="111.5" y1="0" x2="111.5" y2="154" gradientUnits="userSpaceOnUse">
<stop stop-color="#EDE6CD"/>
<stop offset="1" stop-color="#EDE6CD" stop-opacity="0"/>
</linearGradient>
</defs>
</svg>
