<svg width="174" height="120" viewBox="0 0 174 120" fill="none" xmlns="http://www.w3.org/2000/svg">
<g filter="url(#filter0_i_42_4)">
<path d="M172.843 61.8029C172.276 60.8014 171.509 59.9264 170.591 59.2319C169.673 58.5374 168.623 58.038 167.505 57.7644C159.966 55.9369 152.131 55.6913 144.493 57.0433C147.739 42.7644 145.647 31.5865 143.483 25.0962C142.832 23.054 141.446 21.326 139.594 20.2469C137.741 19.1678 135.554 18.8143 133.456 19.2548C126.014 20.9386 118.978 24.0756 112.753 28.4856C108.349 17.9286 101.262 8.70551 92.1939 1.73077C90.6955 0.60731 88.873 0 87 0C85.127 0 83.3046 0.60731 81.8062 1.73077C72.7379 8.70551 65.6507 17.9286 61.2471 28.4856C55.0215 24.0756 47.9857 20.9386 40.5438 19.2548C38.4457 18.8143 36.2586 19.1678 34.4062 20.2469C32.5537 21.326 31.1678 23.054 30.5168 25.0962C28.3527 31.5865 26.2607 42.7644 29.5069 57.0433C21.8689 55.6913 14.0335 55.9369 6.49524 57.7644C5.37699 58.038 4.32655 58.5374 3.40854 59.2319C2.49052 59.9264 1.72434 60.8014 1.15711 61.8029C0.0133048 63.8167 -0.297368 66.1978 0.291469 68.4375C2.74412 77.0914 10.2464 93.6779 32.9695 106.803C55.6926 119.928 76.1073 120 87 120C97.8927 120 118.163 120 141.031 106.803C163.898 93.6058 171.256 77.0914 173.709 68.4375C174.297 66.1978 173.987 63.8167 172.843 61.8029ZM134.682 24.9519C135.37 24.7911 136.093 24.8947 136.708 25.242C137.322 25.5894 137.784 26.1551 138.001 26.8269C140.093 33.3173 142.185 44.8558 137.784 59.7115C137.712 59.8558 137.712 60 137.64 60.1442C135.911 65.8511 133.488 71.3246 130.426 76.4423C124.254 87.0173 116.04 96.2592 106.261 103.63L104.457 104.928C111.743 95.3365 118.74 80.625 118.74 59.4231C118.813 50.8074 117.498 42.2361 114.845 34.0385C120.735 29.6319 127.498 26.5339 134.682 24.9519ZM85.2687 6.34616C85.7682 5.97167 86.3757 5.76923 87 5.76923C87.6243 5.76923 88.2318 5.97167 88.7313 6.34616C96.0171 11.8269 112.969 27.8365 112.969 59.4231C112.969 76.0817 108.353 90.3606 99.3354 101.971C95.8706 106.516 91.7071 110.484 87 113.726C82.2929 110.484 78.1294 106.516 74.6646 101.971C65.6475 90.3606 61.0307 76.0817 61.0307 59.4231C61.0307 27.8365 77.9829 11.8269 85.2687 6.34616ZM35.9992 26.8269C36.216 26.1551 36.6776 25.5894 37.2923 25.242C37.9071 24.8947 38.63 24.7911 39.3175 24.9519C46.5019 26.5339 53.2654 29.6319 59.1552 34.0385C56.5023 42.2361 55.187 50.8074 55.2598 59.4231C55.2598 80.625 62.257 95.3365 69.5429 104.928L67.7395 103.63C57.9603 96.2592 49.7456 87.0173 43.5736 76.4423C40.5105 71.2999 38.088 65.8024 36.3599 60.0721L36.2156 59.7115C31.8153 44.8558 33.9073 33.3173 35.9992 26.8269ZM5.84601 66.851C5.74748 66.4893 5.72224 66.1116 5.7718 65.7401C5.82135 65.3686 5.94468 65.0107 6.13456 64.6875C6.53376 64.0426 7.14632 63.5578 7.86584 63.3173C15.5526 61.5409 23.5406 61.5162 31.2382 63.2452C33.1092 68.8412 35.5507 74.2301 38.524 79.3269C47.8297 95.4808 61.3914 107.019 72.3562 113.654C59.4775 112.393 47.0249 108.358 35.855 101.827C14.8631 89.7115 8.08225 74.7115 5.84601 66.851ZM168.154 66.851C165.918 74.7115 159.137 89.7115 138.145 101.827C126.975 108.358 114.522 112.393 101.644 113.654C112.609 107.019 126.17 95.4808 135.476 79.3269C138.449 74.2301 140.891 68.8412 142.762 63.2452C150.459 61.5162 158.447 61.5409 166.134 63.3173C166.854 63.5578 167.466 64.0426 167.865 64.6875C168.055 65.0107 168.179 65.3686 168.228 65.7401C168.278 66.1116 168.253 66.4893 168.154 66.851Z" fill="url(#paint0_linear_42_4)" fill-opacity="0.5"/>
</g>
<defs>
<filter id="filter0_i_42_4" x="0" y="0" width="174" height="124" filterUnits="userSpaceOnUse" color-interpolation-filters="sRGB">
<feFlood flood-opacity="0" result="BackgroundImageFix"/>
<feBlend mode="normal" in="SourceGraphic" in2="BackgroundImageFix" result="shape"/>
<feColorMatrix in="SourceAlpha" type="matrix" values="0 0 0 0 0 0 0 0 0 0 0 0 0 0 0 0 0 0 127 0" result="hardAlpha"/>
<feOffset dy="4"/>
<feGaussianBlur stdDeviation="2"/>
<feComposite in2="hardAlpha" operator="arithmetic" k2="-1" k3="1"/>
<feColorMatrix type="matrix" values="0 0 0 0 0 0 0 0 0 0 0 0 0 0 0 0 0 0 0.25 0"/>
<feBlend mode="normal" in2="shape" result="effect1_innerShadow_42_4"/>
</filter>
<linearGradient id="paint0_linear_42_4" x1="87" y1="0" x2="87" y2="120" gradientUnits="userSpaceOnUse">
<stop stop-color="#EDE6CD"/>
<stop offset="1" stop-color="#EDE6CD" stop-opacity="0"/>
</linearGradient>
</defs>
</svg>
