<svg width="46" height="46" viewBox="0 0 46 46" fill="none" xmlns="http://www.w3.org/2000/svg">
<circle cx="22.5" cy="23.5" r="20.5" fill="#274641"/>
<path d="M19.4167 25.9667L28.5126 16.8709C28.7952 16.5882 29.1549 16.4469 29.5917 16.4469C30.0285 16.4469 30.3883 16.5882 30.6709 16.8709C30.9535 17.1535 31.0949 17.5132 31.0949 17.95C31.0949 18.3868 30.9535 18.7466 30.6709 19.0292L20.4959 29.2042C20.1876 29.5125 19.8278 29.6667 19.4167 29.6667C19.0056 29.6667 18.6459 29.5125 18.3376 29.2042L14.3292 25.1959C14.0466 24.9132 13.9053 24.5535 13.9053 24.1167C13.9053 23.6799 14.0466 23.3202 14.3292 23.0375C14.6119 22.7549 14.9716 22.6136 15.4084 22.6136C15.8452 22.6136 16.2049 22.7549 16.4876 23.0375L19.4167 25.9667Z" fill="#EDE6CD"/>
</svg>
