<svg width="46" height="46" viewBox="0 0 46 46" fill="none" xmlns="http://www.w3.org/2000/svg">
<circle cx="22.5" cy="23.5" r="20.5" fill="#274641"/>
<path d="M19.4167 25.9666L28.5126 16.8707C28.7952 16.5881 29.1549 16.4468 29.5917 16.4468C30.0285 16.4468 30.3883 16.5881 30.6709 16.8707C30.9535 17.1534 31.0949 17.5131 31.0949 17.9499C31.0949 18.3867 30.9535 18.7464 30.6709 19.0291L20.4959 29.2041C20.1876 29.5124 19.8278 29.6666 19.4167 29.6666C19.0056 29.6666 18.6459 29.5124 18.3376 29.2041L14.3292 25.1957C14.0466 24.9131 13.9053 24.5534 13.9053 24.1166C13.9053 23.6798 14.0466 23.32 14.3292 23.0374C14.6119 22.7548 14.9716 22.6134 15.4084 22.6134C15.8452 22.6134 16.2049 22.7548 16.4876 23.0374L19.4167 25.9666Z" fill="#EDE6CD"/>
</svg>
