<svg width="23" height="23" viewBox="0 0 23 23" fill="none" xmlns="http://www.w3.org/2000/svg">
<path d="M17.3394 21.3161C17.1113 21.3167 16.8877 21.2523 16.6949 21.1305L11.773 18.0055C11.7058 17.963 11.6279 17.9404 11.5484 17.9404C11.4689 17.9404 11.391 17.963 11.3238 18.0055L6.75346 20.9059C6.52475 21.0538 6.25634 21.1284 5.98411 21.1197C5.71188 21.1109 5.4488 21.0193 5.23002 20.8571C5.00041 20.6911 4.82627 20.4597 4.73043 20.1931C4.63459 19.9265 4.62151 19.6371 4.69292 19.3629L6.01127 14.1774C6.03456 14.0919 6.03316 14.0016 6.00723 13.917C5.98131 13.8323 5.93192 13.7567 5.86479 13.6989L1.45073 10.027C1.25907 9.8688 1.11936 9.65667 1.04971 9.41812C0.980055 9.17956 0.983678 8.92558 1.0601 8.68911C1.13366 8.45631 1.27534 8.25092 1.46683 8.09946C1.65833 7.94801 1.89084 7.85746 2.13432 7.8395L7.90581 7.46841C7.98659 7.46061 8.06376 7.43106 8.1291 7.38292C8.19444 7.33477 8.24552 7.26982 8.2769 7.19497L10.4253 1.77505C10.5118 1.54718 10.6655 1.351 10.8661 1.21257C11.0667 1.07414 11.3047 1 11.5484 1C11.7921 1 12.0301 1.07414 12.2306 1.21257C12.4312 1.351 12.585 1.54718 12.6714 1.77505L14.8199 7.19497C14.8513 7.26982 14.9023 7.33477 14.9677 7.38292C15.033 7.43106 15.1102 7.46061 15.191 7.46841L20.9624 7.8395C21.2059 7.85746 21.4384 7.94801 21.6299 8.09946C21.8214 8.25092 21.9631 8.45631 22.0367 8.68911C22.1131 8.92558 22.1167 9.17956 22.0471 9.41812C21.9774 9.65667 21.8377 9.8688 21.646 10.027L17.232 13.6989C17.1648 13.7567 17.1155 13.8323 17.0895 13.917C17.0636 14.0016 17.0622 14.0919 17.0855 14.1774L18.5113 19.7731C18.5745 20.014 18.5626 20.2685 18.4771 20.5024C18.3915 20.7363 18.2365 20.9384 18.0328 21.0817C17.8336 21.2337 17.59 21.3161 17.3394 21.3161ZM11.5484 17.1559C11.7774 17.1588 12.0009 17.2265 12.1929 17.3512L17.1148 20.4665C17.1825 20.5135 17.2634 20.5379 17.3459 20.5361C17.4283 20.5344 17.5081 20.5066 17.5738 20.4567C17.65 20.4035 17.7078 20.328 17.7393 20.2405C17.7708 20.153 17.7744 20.058 17.7496 19.9684L16.3238 14.3629C16.2684 14.1356 16.2774 13.8973 16.3499 13.6748C16.4223 13.4523 16.5553 13.2543 16.7339 13.1032L21.148 9.4313C21.2201 9.37086 21.2718 9.28974 21.2963 9.19892C21.3207 9.10809 21.3167 9.01194 21.2847 8.92349C21.2624 8.84051 21.2145 8.76665 21.1479 8.71233C21.0814 8.65802 20.9994 8.62598 20.9136 8.62075L15.1421 8.24966C14.913 8.23244 14.6934 8.15091 14.5085 8.01443C14.3237 7.87795 14.1811 7.69208 14.0972 7.47818L11.9488 2.05825C11.9174 1.97761 11.8623 1.90833 11.7909 1.85949C11.7195 1.81064 11.6349 1.78451 11.5484 1.78451C11.4618 1.78451 11.3773 1.81064 11.3059 1.85949C11.2344 1.90833 11.1794 1.97761 11.148 2.05825L8.99956 7.47818C8.91565 7.69208 8.77307 7.87795 8.58822 8.01443C8.40337 8.15091 8.18376 8.23244 7.95463 8.24966L2.18315 8.62075C2.09691 8.6281 2.01476 8.66075 1.947 8.71461C1.87925 8.76846 1.82891 8.84113 1.80229 8.92349C1.7754 9.01326 1.77491 9.10888 1.80089 9.19893C1.82686 9.28897 1.8782 9.36964 1.94877 9.4313L6.36284 13.1032C6.54146 13.2543 6.67445 13.4523 6.74689 13.6748C6.81934 13.8973 6.82838 14.1356 6.77299 14.3629L5.45463 19.5583C5.41805 19.6795 5.42105 19.8092 5.46319 19.9286C5.50533 20.048 5.58443 20.1509 5.68901 20.2223C5.78051 20.2934 5.89224 20.3337 6.00809 20.3372C6.12393 20.3407 6.2379 20.3073 6.33354 20.2418L10.9039 17.3512C11.0959 17.2265 11.3194 17.1588 11.5484 17.1559Z" fill="#EDE6CD" stroke="#EDE6CD" stroke-width="1.5"/>
</svg>
