<svg width="126" height="120" viewBox="0 0 126 120" fill="none" xmlns="http://www.w3.org/2000/svg">
<path d="M1 23.125V15.75C1 11.8381 2.63303 8.08634 5.53984 5.32017C8.44666 2.55401 12.3891 1 16.5 1H32M1 96.875V104.25C1 108.162 2.63303 111.914 5.53984 114.68C8.44666 117.446 12.3891 119 16.5 119H32M94 1H109.5C113.611 1 117.553 2.55401 120.46 5.32017C123.367 8.08634 125 11.8381 125 15.75V23.125M94 119H109.5C113.611 119 117.553 117.446 120.46 114.68C123.367 111.914 125 108.162 125 104.25V96.875M8.75 60H117.25" stroke="white" stroke-width="2" stroke-linecap="round" stroke-linejoin="round"/>
</svg>
