<svg width="251" height="238" viewBox="0 0 251 238" fill="none" xmlns="http://www.w3.org/2000/svg">
<path d="M1 45.25V30.5C1 22.6761 4.27923 15.1727 10.1163 9.64035C15.9534 4.10803 23.8701 1 32.125 1H63.25M1 192.75V207.5C1 215.324 4.27923 222.827 10.1163 228.36C15.9534 233.892 23.8701 237 32.125 237H63.25M187.75 1H218.875C227.13 1 235.047 4.10803 240.884 9.64035C246.721 15.1727 250 22.6761 250 30.5V45.25M187.75 237H218.875C227.13 237 235.047 233.892 240.884 228.36C246.721 222.827 250 215.324 250 207.5V192.75M16.5625 119H234.438" stroke="white" stroke-width="2" stroke-linecap="round" stroke-linejoin="round"/>
</svg>
