<svg width="16" height="16" viewBox="0 0 16 16" fill="none" xmlns="http://www.w3.org/2000/svg">
<path d="M11.7323 10.3185H10.9909L10.7281 10.0653C11.3146 9.38432 11.7433 8.58221 11.9834 7.71636C12.2235 6.8505 12.2691 5.94231 12.1171 5.05676C11.676 2.44933 9.49872 0.367141 6.87099 0.0482465C5.94717 -0.0685572 5.00885 0.027398 4.12785 0.328769C3.24684 0.630141 2.4465 1.12894 1.78805 1.787C1.1296 2.44506 0.630511 3.24494 0.328962 4.12543C0.0274141 5.00592 -0.0685974 5.94368 0.0482748 6.86696C0.367356 9.49315 2.45077 11.6691 5.05973 12.11C5.94579 12.2619 6.85452 12.2163 7.72088 11.9764C8.58724 11.7364 9.38982 11.308 10.0712 10.7218L10.3246 10.9844V11.7254L14.3131 15.7116C14.6979 16.0961 15.3266 16.0961 15.7114 15.7116C16.0962 15.327 16.0962 14.6986 15.7114 14.3141L11.7323 10.3185ZM6.10144 10.3185C3.76464 10.3185 1.8783 8.43329 1.8783 6.09786C1.8783 3.76243 3.76464 1.8772 6.10144 1.8772C8.43824 1.8772 10.3246 3.76243 10.3246 6.09786C10.3246 8.43329 8.43824 10.3185 6.10144 10.3185Z" fill="#EDE6CD"/>
</svg>
