<svg width="19" height="16" viewBox="0 0 19 16" fill="none" xmlns="http://www.w3.org/2000/svg">
<path d="M18.2069 7.40483L10.2827 0.616158L9.75155 0.160884C9.63053 0.0578352 9.46686 0 9.29628 0C9.12569 0 8.96203 0.0578352 8.841 0.160884L0.385632 7.40483C0.261623 7.51071 0.163617 7.63681 0.0973989 7.77569C0.0311805 7.91456 -0.00190851 8.06341 8.50042e-05 8.21342C0.00828813 8.83217 0.609167 9.32612 1.33104 9.32612H2.20262V15.0513H16.3899V9.32612H17.28C17.6307 9.32612 17.9608 9.20835 18.209 8.99565C18.3312 8.89126 18.428 8.76712 18.4938 8.63044C18.5596 8.49375 18.5932 8.34723 18.5925 8.19936C18.5925 7.90053 18.4551 7.61753 18.2069 7.40483ZM10.4447 13.7857H8.14784V10.1998H10.4447V13.7857ZM14.9134 8.06049V13.7857H11.7572V9.77788C11.7572 9.3894 11.3901 9.07475 10.9369 9.07475H7.65565C7.20243 9.07475 6.83534 9.3894 6.83534 9.77788V13.7857H3.67919V8.06049H1.71044L9.29833 1.56186L9.77206 1.96792L16.8842 8.06049H14.9134Z" fill="#EDE6CD"/>
</svg>
