<svg width="86" height="60" viewBox="0 0 86 60" fill="none" xmlns="http://www.w3.org/2000/svg">
<path d="M69.8118 25C70.3176 23.5 70.8235 22 70.8235 20C70.8235 9 61.7176 0 50.5882 0C43 0 35.9176 4.5 32.8824 11C31.3647 10.5 29.3412 10 27.8235 10C20.7412 10 15.1765 15.5 15.1765 22.5C15.1765 23.5 15.1765 24.5 15.6824 25C6.57647 26.5 0 33.5 0 42.5C0 52 8.09412 60 17.7059 60H35.4118V45H20.2353L43 22.5L65.7647 45H50.5882V60H68.2941C77.9059 60 86 52 86 42.5C86 33.5 78.9176 26 69.8118 25Z" fill="#EDE6CD"/>
</svg>
