<svg width="21" height="16" viewBox="0 0 21 16" fill="none" xmlns="http://www.w3.org/2000/svg">
<path d="M6.73318 11.5219L17.8453 0.513119C18.1906 0.171039 18.63 0 19.1637 0C19.6973 0 20.1368 0.171039 20.4821 0.513119C20.8274 0.855199 21 1.29057 21 1.81924C21 2.34791 20.8274 2.78329 20.4821 3.12537L8.05157 15.4402C7.67489 15.8134 7.23542 16 6.73318 16C6.23094 16 5.79148 15.8134 5.4148 15.4402L0.517936 10.5889C0.172645 10.2468 0 9.81147 0 9.2828C0 8.75413 0.172645 8.31876 0.517936 7.97668C0.863228 7.6346 1.30269 7.46356 1.83632 7.46356C2.36995 7.46356 2.80942 7.6346 3.15471 7.97668L6.73318 11.5219Z" fill="#EDE6CD"/>
</svg>
